<svg xmlns="http://www.w3.org/2000/svg" width="190.267" height="18.929" viewBox="0 0 190.267 18.929"><g style="isolation:isolate"><g style="isolation:isolate"><path d="M4.55,18.383a7.286,7.286,0,0,1-.9.155,9.532,9.532,0,0,1-1.209.078,5.384,5.384,0,0,1-1.053-.091A1.858,1.858,0,0,1,.624,18.2a1.4,1.4,0,0,1-.468-.649A3.178,3.178,0,0,1,0,16.458V2.73c.19-.035.494-.082.91-.143a8.25,8.25,0,0,1,1.2-.091,5.4,5.4,0,0,1,1.053.091,1.877,1.877,0,0,1,.767.325,1.406,1.406,0,0,1,.468.65A3.175,3.175,0,0,1,4.55,4.654Z" fill="#447b64"/><path d="M15.6,10.479A1.453,1.453,0,0,0,15.145,9.3a1.88,1.88,0,0,0-1.235-.377,4.148,4.148,0,0,0-1.027.13,2.637,2.637,0,0,0-.871.39V18.46a5.914,5.914,0,0,1-.819.156,8.377,8.377,0,0,1-1.157.078,6.107,6.107,0,0,1-1.027-.078,1.757,1.757,0,0,1-.767-.311,1.5,1.5,0,0,1-.481-.638,2.751,2.751,0,0,1-.169-1.053v-7.8a2,2,0,0,1,.3-1.144,3.16,3.16,0,0,1,.819-.806,7.417,7.417,0,0,1,2.223-1.013A10.587,10.587,0,0,1,13.91,5.46a7.023,7.023,0,0,1,4.524,1.287,4.35,4.35,0,0,1,1.586,3.575V18.46a5.914,5.914,0,0,1-.819.156,8.377,8.377,0,0,1-1.157.078,6.107,6.107,0,0,1-1.027-.078,1.757,1.757,0,0,1-.767-.311,1.5,1.5,0,0,1-.481-.638,2.751,2.751,0,0,1-.169-1.053Z" fill="#447b64"/><path d="M22.2,12.168a7.756,7.756,0,0,1,.52-2.977A5.666,5.666,0,0,1,24.167,7.1a5.925,5.925,0,0,1,2.157-1.236,8.562,8.562,0,0,1,2.665-.4A5.551,5.551,0,0,1,30,5.552a4.05,4.05,0,0,1,.807.22V1.561a6.844,6.844,0,0,1,.832-.169,7.381,7.381,0,0,1,1.17-.091,6.118,6.118,0,0,1,1.026.077,1.758,1.758,0,0,1,.767.312,1.42,1.42,0,0,1,.468.637,2.972,2.972,0,0,1,.156,1.053V15.7a2.216,2.216,0,0,1-1.144,1.95,7.9,7.9,0,0,1-1.95.871,10.15,10.15,0,0,1-5.784-.09,6.167,6.167,0,0,1-2.263-1.353,5.8,5.8,0,0,1-1.4-2.119A7.62,7.62,0,0,1,22.2,12.168Zm7.383-3.25a2.809,2.809,0,0,0-2.157.807,3.463,3.463,0,0,0-.755,2.443,3.656,3.656,0,0,0,.7,2.432,2.525,2.525,0,0,0,2.028.818,2.352,2.352,0,0,0,.845-.143,1.891,1.891,0,0,0,.585-.325V9.23A2.381,2.381,0,0,0,29.587,8.918Z" fill="#447b64"/><path d="M44.668,18.9a9.114,9.114,0,0,1-2.847-.428,6.445,6.445,0,0,1-2.288-1.287A5.954,5.954,0,0,1,38,15.028a7.646,7.646,0,0,1-.559-3.042A7.112,7.112,0,0,1,38,9.035a5.811,5.811,0,0,1,1.469-2.027,5.874,5.874,0,0,1,2.08-1.171A7.761,7.761,0,0,1,43.94,5.46a7.256,7.256,0,0,1,2.509.416A6.019,6.019,0,0,1,48.4,7.021a5.087,5.087,0,0,1,1.274,1.742,5.336,5.336,0,0,1,.455,2.21,1.772,1.772,0,0,1-.494,1.351,2.462,2.462,0,0,1-1.378.6l-6.422.963A2.157,2.157,0,0,0,43,15.171a4.587,4.587,0,0,0,2.028.43,7.224,7.224,0,0,0,2.015-.274,6.329,6.329,0,0,0,1.547-.637,2.19,2.19,0,0,1,.7.728,1.873,1.873,0,0,1,.286.988,1.853,1.853,0,0,1-1.092,1.742,5.762,5.762,0,0,1-1.872.6A13.064,13.064,0,0,1,44.668,18.9ZM43.94,8.685a2.571,2.571,0,0,0-1.079.208,2.156,2.156,0,0,0-.741.533,2.208,2.208,0,0,0-.429.727,2.965,2.965,0,0,0-.169.82l4.446-.729A1.967,1.967,0,0,0,45.4,9.2,1.915,1.915,0,0,0,43.94,8.685Z" fill="#447b64"/><path d="M51.428,7.9a3.172,3.172,0,0,1,.819-1.612,2.041,2.041,0,0,1,1.521-.624,1.937,1.937,0,0,1,1.326.416,8.336,8.336,0,0,1,1.04,1.17L57.8,9.438l2.782-3.77a4.322,4.322,0,0,1,2.262.508,1.541,1.541,0,0,1,.832,1.364,1.909,1.909,0,0,1-.091.611,2.565,2.565,0,0,1-.273.559q-.183.286-.468.65t-.676.859L60.45,12.143l3.406,4.5a2.415,2.415,0,0,1-.78,1.559,2.281,2.281,0,0,1-1.56.572,2.3,2.3,0,0,1-1.573-.572,8.328,8.328,0,0,1-1.131-1.326l-1.4-2-2.652,3.822c-.087,0-.182,0-.286.013s-.191.014-.26.014a3.2,3.2,0,0,1-2.015-.546,1.664,1.664,0,0,1-.689-1.353,2.039,2.039,0,0,1,.3-1.1A10.94,10.94,0,0,1,52.832,14.4l2.08-2.418Z" fill="#447b64"/><path d="M75.816,18.383a7.275,7.275,0,0,1-.9.155,9.532,9.532,0,0,1-1.209.078,5.381,5.381,0,0,1-1.052-.091,1.858,1.858,0,0,1-.767-.325,1.4,1.4,0,0,1-.468-.649,3.178,3.178,0,0,1-.156-1.093V2.73c.19-.035.494-.082.91-.143a8.24,8.24,0,0,1,1.2-.091,5.4,5.4,0,0,1,1.053.091,1.877,1.877,0,0,1,.767.325,1.406,1.406,0,0,1,.468.65,3.175,3.175,0,0,1,.156,1.092Z" fill="#447b64"/><path d="M86.865,10.479A1.453,1.453,0,0,0,86.41,9.3a1.878,1.878,0,0,0-1.235-.377,4.154,4.154,0,0,0-1.027.13,2.655,2.655,0,0,0-.871.39V18.46a5.853,5.853,0,0,1-.819.156,8.366,8.366,0,0,1-1.157.078,6.124,6.124,0,0,1-1.027-.078,1.762,1.762,0,0,1-.767-.311,1.5,1.5,0,0,1-.481-.638,2.77,2.77,0,0,1-.169-1.053v-7.8a2.009,2.009,0,0,1,.3-1.144,3.149,3.149,0,0,1,.82-.806A7.41,7.41,0,0,1,82.2,5.851a10.592,10.592,0,0,1,2.977-.391A7.019,7.019,0,0,1,89.7,6.747a4.35,4.35,0,0,1,1.586,3.575V18.46a5.853,5.853,0,0,1-.819.156,8.362,8.362,0,0,1-1.156.078,6.119,6.119,0,0,1-1.028-.078,1.762,1.762,0,0,1-.767-.311,1.5,1.5,0,0,1-.481-.638,2.751,2.751,0,0,1-.169-1.053Z" fill="#447b64"/><path d="M93.469,12.168a7.775,7.775,0,0,1,.52-2.977A5.666,5.666,0,0,1,95.432,7.1a5.933,5.933,0,0,1,2.157-1.236,8.578,8.578,0,0,1,2.666-.4,5.567,5.567,0,0,1,1.014.092,4.089,4.089,0,0,1,.807.22V1.561a6.8,6.8,0,0,1,.832-.169,7.381,7.381,0,0,1,1.17-.091,6.126,6.126,0,0,1,1.026.077,1.753,1.753,0,0,1,.767.312,1.413,1.413,0,0,1,.468.637A2.97,2.97,0,0,1,106.5,3.38V15.7a2.217,2.217,0,0,1-1.145,1.95,7.919,7.919,0,0,1-1.95.871,10.15,10.15,0,0,1-5.784-.09,6.15,6.15,0,0,1-2.263-1.353,5.815,5.815,0,0,1-1.4-2.119A7.641,7.641,0,0,1,93.469,12.168Zm7.384-3.25a2.813,2.813,0,0,0-2.158.807,3.468,3.468,0,0,0-.754,2.443,3.651,3.651,0,0,0,.7,2.432,2.524,2.524,0,0,0,2.028.818,2.352,2.352,0,0,0,.845-.143,1.891,1.891,0,0,0,.585-.325V9.23A2.386,2.386,0,0,0,100.853,8.918Z" fill="#447b64"/><path d="M109.147,2.34A2.286,2.286,0,0,1,109.81.677a2.613,2.613,0,0,1,3.51,0,2.286,2.286,0,0,1,.663,1.663A2.287,2.287,0,0,1,113.32,4a2.613,2.613,0,0,1-3.51,0A2.287,2.287,0,0,1,109.147,2.34Zm4.628,16.12c-.192.035-.473.082-.846.144a7.091,7.091,0,0,1-1.131.09,6.111,6.111,0,0,1-1.026-.078,1.752,1.752,0,0,1-.767-.311,1.489,1.489,0,0,1-.481-.638,2.77,2.77,0,0,1-.169-1.053V6.032c.19-.034.473-.082.845-.142a6.981,6.981,0,0,1,1.132-.092,6.12,6.12,0,0,1,1.026.078,1.758,1.758,0,0,1,.767.312,1.506,1.506,0,0,1,.481.637,2.777,2.777,0,0,1,.169,1.053Z" fill="#447b64"/><path d="M123.707,8.944a3.673,3.673,0,0,0-1.235.208,2.864,2.864,0,0,0-1.014.612,2.956,2.956,0,0,0-.689,1,3.482,3.482,0,0,0-.26,1.4,3.036,3.036,0,0,0,.923,2.418,3.293,3.293,0,0,0,2.249.807,4.453,4.453,0,0,0,1.352-.183,8.222,8.222,0,0,0,1.013-.39,2.7,2.7,0,0,1,.782.793,1.959,1.959,0,0,1,.259,1.028,1.817,1.817,0,0,1-1.014,1.65,5.636,5.636,0,0,1-2.808.585,8.67,8.67,0,0,1-2.965-.48,6.706,6.706,0,0,1-2.274-1.353,5.965,5.965,0,0,1-1.469-2.093,6.829,6.829,0,0,1-.52-2.7,7.488,7.488,0,0,1,.559-3,5.826,5.826,0,0,1,1.521-2.119,6.433,6.433,0,0,1,2.222-1.248,8.5,8.5,0,0,1,2.666-.416,5.185,5.185,0,0,1,2.886.677,2.023,2.023,0,0,1,1.014,1.741,1.889,1.889,0,0,1-.234.924,3.234,3.234,0,0,1-.546.74,8.429,8.429,0,0,0-1.066-.4A4.513,4.513,0,0,0,123.707,8.944Z" fill="#447b64"/><path d="M134.5,5.46a10.707,10.707,0,0,1,2.561.286,5.767,5.767,0,0,1,1.976.871,3.925,3.925,0,0,1,1.26,1.483,4.733,4.733,0,0,1,.443,2.119v5.823a1.613,1.613,0,0,1-.377,1.1,3.709,3.709,0,0,1-.9.742,9.3,9.3,0,0,1-4.757,1.013,10.94,10.94,0,0,1-2.483-.259,5.882,5.882,0,0,1-1.9-.781,3.559,3.559,0,0,1-1.222-1.326,3.924,3.924,0,0,1-.429-1.872,3.523,3.523,0,0,1,1.066-2.756,5.757,5.757,0,0,1,3.3-1.2l3.406-.363v-.183a1.116,1.116,0,0,0-.663-1.079,4.478,4.478,0,0,0-1.911-.324,8.82,8.82,0,0,0-1.924.208,10.144,10.144,0,0,0-1.69.519,1.786,1.786,0,0,1-.572-.715,2.258,2.258,0,0,1-.234-1,1.669,1.669,0,0,1,.325-1.079,2.519,2.519,0,0,1,1-.689,7.852,7.852,0,0,1,1.781-.416A15.576,15.576,0,0,1,134.5,5.46Zm.208,10.219a5.787,5.787,0,0,0,.974-.092,2.376,2.376,0,0,0,.793-.247V13.261l-1.871.155a2.88,2.88,0,0,0-1.2.313.838.838,0,0,0-.468.78,1.037,1.037,0,0,0,.4.845A2.218,2.218,0,0,0,134.705,15.679Z" fill="#447b64"/><path d="M147.861,14.145a1.063,1.063,0,0,0,.43.961,2.161,2.161,0,0,0,1.209.287,5.124,5.124,0,0,0,.8-.066,4.424,4.424,0,0,0,.729-.169,3.261,3.261,0,0,1,.4.637,1.948,1.948,0,0,1,.169.846,2.009,2.009,0,0,1-.741,1.611,4.132,4.132,0,0,1-2.613.624,5.323,5.323,0,0,1-3.523-1.04,4.182,4.182,0,0,1-1.235-3.38V3.328c.19-.052.464-.107.819-.169a6.783,6.783,0,0,1,1.131-.091,3.324,3.324,0,0,1,1.781.4,1.883,1.883,0,0,1,.637,1.7V6.838h3.406a4.54,4.54,0,0,1,.3.716,2.961,2.961,0,0,1,.142.948,1.805,1.805,0,0,1-.4,1.313,1.459,1.459,0,0,1-1.079.4h-2.366Z" fill="#447b64"/><path d="M166.763,12.168a7.854,7.854,0,0,1-.494,2.873,5.819,5.819,0,0,1-1.392,2.119,5.907,5.907,0,0,1-2.145,1.3,8.278,8.278,0,0,1-2.781.442,7.9,7.9,0,0,1-2.783-.467,6.156,6.156,0,0,1-2.145-1.339,5.972,5.972,0,0,1-1.391-2.119,7.587,7.587,0,0,1-.494-2.809,7.5,7.5,0,0,1,.494-2.781,5.972,5.972,0,0,1,1.391-2.119,6.112,6.112,0,0,1,2.145-1.339,7.85,7.85,0,0,1,2.783-.469,7.692,7.692,0,0,1,2.781.481,6.309,6.309,0,0,1,2.145,1.352,5.974,5.974,0,0,1,1.392,2.119A7.455,7.455,0,0,1,166.763,12.168Zm-9.1,0a4.123,4.123,0,0,0,.61,2.432,1.985,1.985,0,0,0,1.7.844,1.909,1.909,0,0,0,1.678-.858,4.267,4.267,0,0,0,.584-2.418,4.118,4.118,0,0,0-.6-2.4,2.11,2.11,0,0,0-3.379,0A4.118,4.118,0,0,0,157.663,12.168Z" fill="#447b64"/><path d="M173.341,18.46a5.914,5.914,0,0,1-.819.156,8.377,8.377,0,0,1-1.157.078,6.136,6.136,0,0,1-1.028-.078,1.763,1.763,0,0,1-.766-.311,1.515,1.515,0,0,1-.482-.638,2.772,2.772,0,0,1-.168-1.053v-7.8a2.211,2.211,0,0,1,.221-1.027,2.392,2.392,0,0,1,.637-.766,4.586,4.586,0,0,1,1.027-.612,10.569,10.569,0,0,1,1.313-.48,11.057,11.057,0,0,1,1.456-.325,9.7,9.7,0,0,1,1.508-.118,3.531,3.531,0,0,1,1.976.482,1.743,1.743,0,0,1,.728,1.572,2.55,2.55,0,0,1-.1.715,3.322,3.322,0,0,1-.26.638q-.546,0-1.119.051t-1.117.157q-.546.1-1.027.22a4.422,4.422,0,0,0-.819.274Z" fill="#447b64"/><path d="M190.267,14.717a3.66,3.66,0,0,1-1.482,3.094,7.19,7.19,0,0,1-4.368,1.118,12.363,12.363,0,0,1-2.029-.157,5.785,5.785,0,0,1-1.6-.481,2.837,2.837,0,0,1-1.04-.818,1.87,1.87,0,0,1-.377-1.17,1.994,1.994,0,0,1,.259-1.054,2.658,2.658,0,0,1,.624-.715,10.245,10.245,0,0,0,1.73.741,7.085,7.085,0,0,0,2.248.326,2.626,2.626,0,0,0,1.235-.235.7.7,0,0,0,.429-.624.655.655,0,0,0-.312-.572,2.913,2.913,0,0,0-1.04-.338l-.779-.155a7.293,7.293,0,0,1-3.367-1.392,3.385,3.385,0,0,1-1.106-2.717,3.588,3.588,0,0,1,1.586-3.042,5.867,5.867,0,0,1,1.807-.8,8.861,8.861,0,0,1,2.327-.286,10.893,10.893,0,0,1,1.808.142,5.915,5.915,0,0,1,1.469.429,2.66,2.66,0,0,1,.988.741,1.679,1.679,0,0,1,.363,1.079,2.225,2.225,0,0,1-.221,1.028,2.306,2.306,0,0,1-.558.714,3.241,3.241,0,0,0-.625-.273c-.278-.1-.58-.182-.909-.26s-.663-.142-1-.2a6.121,6.121,0,0,0-.924-.077,3.563,3.563,0,0,0-1.325.194.647.647,0,0,0-.468.611.548.548,0,0,0,.26.468,2.93,2.93,0,0,0,.988.338l.806.183a7.668,7.668,0,0,1,3.548,1.572A3.409,3.409,0,0,1,190.267,14.717Z" fill="#447b64"/></g></g></svg>