<svg xmlns="http://www.w3.org/2000/svg" width="25" height="25" viewBox="0 0 25 25"><circle cx="12.5" cy="12.5" r="12.5" fill="#447b64"/><g style="isolation:isolate"><g style="isolation:isolate"><path d="M15.24,19.9a7.244,7.244,0,0,1-.9.156,9.532,9.532,0,0,1-1.209.078,5.384,5.384,0,0,1-1.053-.091,1.858,1.858,0,0,1-.767-.325,1.4,1.4,0,0,1-.468-.65,3.168,3.168,0,0,1-.156-1.092V4.244c.19-.035.494-.082.91-.143a8.25,8.25,0,0,1,1.2-.091A5.417,5.417,0,0,1,13.85,4.1a1.878,1.878,0,0,1,.766.325,1.406,1.406,0,0,1,.468.65,3.175,3.175,0,0,1,.156,1.092Z" fill="#fff"/></g></g></svg>